<svg width="37" height="37" viewBox="0 0 37 37" fill="none" xmlns="http://www.w3.org/2000/svg">
<path d="M0 0V37H37V0H0ZM30.7393 8.76746L28.7521 10.6683C28.6683 10.7324 28.6035 10.818 28.5647 10.916C28.5259 11.0141 28.5144 11.1208 28.5316 11.2249V25.2047C28.5144 25.3087 28.5259 25.4155 28.5647 25.5135C28.6035 25.6116 28.6683 25.6972 28.7521 25.7612L30.69 27.6637V28.0799H20.942V27.6637L22.9508 25.715C23.1481 25.5177 23.1481 25.4591 23.1481 25.16V13.8596L17.5673 28.0368H16.8119L10.3137 13.8596V23.3609C10.287 23.5579 10.3055 23.7584 10.3677 23.9473C10.4299 24.1361 10.5343 24.3083 10.673 24.4508L13.2845 27.619V28.0352H5.88146V27.619L8.49458 24.4508C8.6321 24.3082 8.73416 24.1352 8.79254 23.9459C8.85092 23.7566 8.86398 23.5562 8.83067 23.3609V12.3734C8.84593 12.2232 8.82555 12.0714 8.77117 11.9305C8.71679 11.7896 8.62996 11.6635 8.51771 11.5625L6.19596 8.76746V8.34967H13.4017L18.9717 20.5643L23.8681 8.34812H30.7377L30.7393 8.76746Z" fill="#3C64B1"/>
</svg>
