<svg width="37" height="35" viewBox="0 0 37 35" fill="none" xmlns="http://www.w3.org/2000/svg">
<path d="M25.0999 11.8999C27.7255 11.8999 30.2436 12.9429 32.1001 14.7995C33.9567 16.656 34.9997 19.1741 34.9997 21.7996V33.3494H28.3999V21.7996C28.3999 20.9245 28.0522 20.0851 27.4333 19.4663C26.8145 18.8474 25.9751 18.4997 25.0999 18.4997C24.2248 18.4997 23.3854 18.8474 22.7666 19.4663C22.1477 20.0851 21.8 20.9245 21.8 21.7996V33.3494H15.2002V21.7996C15.2002 19.1741 16.2432 16.656 18.0998 14.7995C19.9563 12.9429 22.4744 11.8999 25.0999 11.8999V11.8999Z" stroke="#F2994A" stroke-width="2.5" stroke-linecap="round" stroke-linejoin="round"/>
<path d="M8.59983 13.5498H2V33.3493H8.59983V13.5498Z" stroke="#F2994A" stroke-width="2.5" stroke-linecap="round" stroke-linejoin="round"/>
<path d="M5.29992 8.59983C7.12241 8.59983 8.59983 7.12241 8.59983 5.29992C8.59983 3.47742 7.12241 2 5.29992 2C3.47742 2 2 3.47742 2 5.29992C2 7.12241 3.47742 8.59983 5.29992 8.59983Z" stroke="#F2994A" stroke-width="2.5" stroke-linecap="round" stroke-linejoin="round"/>
</svg>
