<svg width="37" height="37" viewBox="0 0 37 37" fill="none" xmlns="http://www.w3.org/2000/svg">
<path d="M0 0V37H37V0H0ZM9.07385 7.27398C10.5394 7.29048 11.983 8.30151 12.0458 10.0517C12.0771 11.608 10.7208 12.7934 9.03546 12.8294H8.99482C7.5439 12.8127 6.12695 11.7763 6.06128 10.0517C6.08197 8.51271 7.37561 7.31049 9.07385 7.27398V7.27398ZM24.7961 14.627C26.4073 14.637 27.9279 15.115 29.1772 16.3885C30.4755 17.8365 30.8923 19.8329 30.9387 21.8626V31.0946H25.6182V22.4904C25.6063 20.8778 25.0539 18.9175 22.9195 18.8523C21.6686 18.8656 20.7864 19.5925 20.1824 20.808C20.0175 21.1992 19.9938 21.6489 19.986 22.0975V31.0946H14.6677C14.688 26.5967 14.716 22.0991 14.7061 17.6012C14.7061 16.3235 14.6937 15.4632 14.6677 15.02H19.986V17.2873C20.4374 16.6453 20.9381 16.0364 21.6096 15.5461C22.5206 14.896 23.6149 14.6468 24.7961 14.627V14.627ZM6.37519 15.02H11.6935V31.0946H6.37519V15.02V15.02Z" fill="#3C64B1"/>
</svg>
