<svg width="37" height="31" viewBox="0 0 37 31" fill="none" xmlns="http://www.w3.org/2000/svg">
<path d="M35 2.01513C33.5636 3.03153 31.9732 3.80891 30.29 4.31733C29.3866 3.27534 28.186 2.5368 26.8506 2.2016C25.5151 1.86641 24.1092 1.95072 22.8231 2.44315C21.537 2.93558 20.4327 3.81236 19.6595 4.9549C18.8863 6.09745 18.4815 7.45064 18.5 8.83146V10.3362C15.864 10.4047 13.2519 9.81826 10.8965 8.62899C8.54112 7.43972 6.51548 5.68457 5 3.51984C5 3.51984 -1 17.0622 12.5 23.081C9.41079 25.1846 5.73074 26.2393 2 26.0905C15.5 33.614 32 26.0905 32 8.78632C31.9986 8.36719 31.9584 7.94909 31.88 7.53741C33.4109 6.02291 34.4912 4.11076 35 2.01513Z" stroke="#F2994A" stroke-width="2.5" stroke-linecap="round" stroke-linejoin="round"/>
</svg>
