<svg width="32" height="31" viewBox="0 0 32 31" fill="none" xmlns="http://www.w3.org/2000/svg">
<path d="M21.3075 10.5264C23.5689 10.5264 25.7376 11.4247 27.3365 13.0237C28.9355 14.6226 29.8338 16.7913 29.8338 19.0527V29H24.1496V19.0527C24.1496 18.2989 23.8502 17.576 23.3172 17.043C22.7842 16.51 22.0613 16.2106 21.3075 16.2106C20.5538 16.2106 19.8309 16.51 19.2979 17.043C18.7649 17.576 18.4654 18.2989 18.4654 19.0527V29H12.7812V19.0527C12.7812 16.7913 13.6796 14.6226 15.2785 13.0237C16.8775 11.4247 19.0462 10.5264 21.3075 10.5264V10.5264Z" stroke="#F2994A" stroke-width="2.5" stroke-linecap="round" stroke-linejoin="round"/>
<path d="M7.0963 11.9475H1.41211V29.0001H7.0963V11.9475Z" stroke="#F2994A" stroke-width="2.5" stroke-linecap="round" stroke-linejoin="round"/>
<path d="M4.2542 7.68419C5.82385 7.68419 7.0963 6.41174 7.0963 4.8421C7.0963 3.27245 5.82385 2 4.2542 2C2.68456 2 1.41211 3.27245 1.41211 4.8421C1.41211 6.41174 2.68456 7.68419 4.2542 7.68419Z" stroke="#F2994A" stroke-width="2.5" stroke-linecap="round" stroke-linejoin="round"/>
</svg>
