<svg width="37" height="37" viewBox="0 0 37 37" fill="none" xmlns="http://www.w3.org/2000/svg">
<path d="M35.52 0H1.48C0.661375 0 0 0.661375 0 1.48V35.52C0 36.3386 0.661375 37 1.48 37H35.52C36.3386 37 37 36.3386 37 35.52V1.48C37 0.661375 36.3386 0 35.52 0ZM28.4576 13.3986C28.4715 13.616 28.4715 13.8426 28.4715 14.0646C28.4715 20.8541 23.3008 28.675 13.8519 28.675C10.9381 28.675 8.23712 27.8286 5.96162 26.3718C6.37787 26.418 6.77563 26.4365 7.20113 26.4365C9.60613 26.4365 11.8169 25.6225 13.579 24.2443C11.322 24.198 9.42575 22.718 8.77825 20.683C9.56912 20.7986 10.2814 20.7986 11.0954 20.5905C9.93323 20.3544 8.88867 19.7232 8.13915 18.8042C7.38963 17.8853 6.98138 16.7351 6.98375 15.5493V15.4845C7.66363 15.8684 8.46375 16.1042 9.30088 16.1366C8.59715 15.6676 8.02002 15.0322 7.62066 14.2868C7.22131 13.5413 7.01207 12.7088 7.0115 11.8631C7.0115 10.9058 7.26125 10.0316 7.70988 9.27313C8.9998 10.8611 10.6094 12.1598 12.4341 13.0849C14.2589 14.01 16.2578 14.5408 18.3011 14.6428C17.575 11.1509 20.1835 8.325 23.3193 8.325C24.7993 8.325 26.1312 8.94475 27.0701 9.94375C28.231 9.72638 29.341 9.29162 30.3307 8.70887C29.9469 9.8975 29.1421 10.9011 28.0738 11.5347C29.1098 11.4237 30.1088 11.137 31.0338 10.7346C30.3354 11.7614 29.4612 12.6725 28.4576 13.3986V13.3986Z" fill="#3C64B1"/>
</svg>
