<svg width="36" height="31" viewBox="0 0 36 31" fill="none" xmlns="http://www.w3.org/2000/svg">
<path d="M34.5879 2.01513C33.1515 3.03153 31.5611 3.80891 29.8779 4.31733C28.9745 3.27534 27.7739 2.5368 26.4384 2.2016C25.103 1.86641 23.6971 1.95072 22.411 2.44315C21.1249 2.93558 20.0206 3.81236 19.2474 4.9549C18.4742 6.09745 18.0694 7.45064 18.0879 8.83146V10.3362C15.4518 10.4047 12.8398 9.81826 10.4844 8.62899C8.12901 7.43972 6.10337 5.68457 4.58789 3.51984C4.58789 3.51984 -1.41211 17.0622 12.0879 23.081C8.99868 25.1846 5.31863 26.2393 1.58789 26.0905C15.0879 33.614 31.5879 26.0905 31.5879 8.78632C31.5865 8.36719 31.5463 7.94909 31.4679 7.53741C32.9988 6.02291 34.0791 4.11076 34.5879 2.01513Z" stroke="#CC803C" stroke-width="2.5" stroke-linecap="round" stroke-linejoin="round"/>
</svg>
