<svg width="34" height="27" viewBox="0 0 34 27" fill="none" xmlns="http://www.w3.org/2000/svg">
<path d="M30.8745 22.6154V10.2856C30.8745 9.94459 30.739 9.61757 30.4979 9.37645C30.2568 9.13534 29.9298 8.99988 29.5888 8.99988C29.2478 8.99988 28.9208 9.13534 28.6797 9.37645C28.4386 9.61757 28.3031 9.94459 28.3031 10.2856V23.1425C28.3021 23.3118 28.3346 23.4795 28.3985 23.6361C28.4625 23.7928 28.5568 23.9353 28.676 24.0554L29.0617 24.4282H22.4018L22.7875 24.0554C22.9066 23.9353 23.0009 23.7928 23.0649 23.6361C23.1289 23.4795 23.1613 23.3118 23.1603 23.1425V10.2856C23.1569 9.99053 23.052 9.70565 22.8634 9.47875C22.6747 9.25185 22.4138 9.09675 22.1243 9.03946C21.8349 8.98217 21.5345 9.02619 21.2737 9.16413C21.0128 9.30207 20.8074 9.52553 20.6918 9.79701L14.7776 23.9397L6.33055 5.88849C6.29107 5.80692 6.2437 5.72941 6.18912 5.65707L3.87487 2.5714H9.50622L15.5876 14.7855C15.6982 15.0055 15.8697 15.1891 16.0817 15.3145C16.2937 15.4398 16.5372 15.5017 16.7833 15.4926C17.0319 15.4829 17.2724 15.4011 17.4755 15.2573C17.6786 15.1136 17.8357 14.9139 17.9275 14.6827L22.7489 2.5714H29.0617L28.676 2.94425C28.5568 3.06438 28.4625 3.20686 28.3985 3.36351C28.3346 3.52015 28.3021 3.68789 28.3031 3.85709V5.14279C28.3031 5.48378 28.4386 5.8108 28.6797 6.05191C28.9208 6.29303 29.2478 6.42849 29.5888 6.42849C29.9298 6.42849 30.2568 6.29303 30.4979 6.05191C30.739 5.8108 30.8745 5.48378 30.8745 5.14279V4.38423L33.073 2.19854C33.2514 2.01774 33.3723 1.78815 33.4203 1.53874C33.4684 1.28933 33.4415 1.03127 33.343 0.797134C33.2466 0.562342 33.0828 0.361353 32.8723 0.219498C32.6618 0.077643 32.414 0.00126961 32.1602 2.57555e-06H21.8746C21.6171 -0.000246698 21.3655 0.0768293 21.1523 0.221247C20.9391 0.365664 20.7742 0.570768 20.6789 0.809992L16.6033 11.0056L11.4605 0.719993C11.3545 0.503606 11.1898 0.32137 10.9852 0.194067C10.7806 0.0667649 10.5443 -0.000479656 10.3034 2.57555e-06H1.30347C1.06605 0.000722187 0.833457 0.0671719 0.631484 0.191987C0.429511 0.316801 0.266045 0.495106 0.159203 0.707136C0.0634258 0.912616 0.0236832 1.13977 0.0440045 1.36556C0.0643259 1.59135 0.143989 1.80776 0.274916 1.99283L4.05486 7.07133L4.51772 8.06132V19.2855L0.274916 24.9425C0.118979 25.1409 0.0248586 25.3808 0.00428263 25.6322C-0.0162933 25.8837 0.0375845 26.1357 0.159203 26.3568C0.274614 26.5568 0.441779 26.7221 0.643131 26.8352C0.844483 26.9483 1.07259 27.0051 1.30347 26.9996H10.3034C10.5408 26.9989 10.7734 26.9325 10.9753 26.8077C11.1773 26.6828 11.3408 26.5045 11.4476 26.2925C11.5559 26.079 11.6025 25.8395 11.582 25.601C11.5616 25.3625 11.475 25.1345 11.3319 24.9425L7.08911 19.2855V13.6027L12.9905 26.2539C13.0937 26.4771 13.2589 26.666 13.4662 26.7981C13.6736 26.9303 13.9145 27.0002 14.1604 26.9996H15.4461C15.7 26.9984 15.9477 26.922 16.1582 26.7801C16.3687 26.6383 16.5325 26.4373 16.629 26.2025L20.5889 16.7141V22.6154L18.3904 24.8011C18.212 24.9819 18.0911 25.2115 18.0431 25.4609C17.995 25.7103 18.0219 25.9684 18.1204 26.2025C18.2168 26.4373 18.3806 26.6383 18.5911 26.7801C18.8016 26.922 19.0494 26.9984 19.3032 26.9996H32.1602C32.414 26.9984 32.6618 26.922 32.8723 26.7801C33.0828 26.6383 33.2466 26.4373 33.343 26.2025C33.4415 25.9684 33.4684 25.7103 33.4203 25.4609C33.3723 25.2115 33.2514 24.9819 33.073 24.8011L30.8745 22.6154ZM3.87487 24.4282L5.80341 21.8568L7.73196 24.4282H3.87487Z" fill="#F2994A"/>
</svg>
