<svg width="35" height="27" viewBox="0 0 35 27" fill="none" xmlns="http://www.w3.org/2000/svg">
<path d="M31.4624 22.6154V10.2856C31.4624 9.94459 31.3269 9.61757 31.0858 9.37645C30.8447 9.13534 30.5177 8.99988 30.1767 8.99988C29.8357 8.99988 29.5087 9.13534 29.2676 9.37645C29.0265 9.61757 28.891 9.94459 28.891 10.2856V23.1425C28.89 23.3118 28.9225 23.4795 28.9864 23.6361C29.0504 23.7928 29.1447 23.9353 29.2639 24.0554L29.6496 24.4282H22.9896L23.3754 24.0554C23.4945 23.9353 23.5888 23.7928 23.6528 23.6361C23.7168 23.4795 23.7492 23.3118 23.7482 23.1425V10.2856C23.7447 9.99053 23.6399 9.70565 23.4513 9.47875C23.2626 9.25185 23.0017 9.09675 22.7122 9.03946C22.4228 8.98217 22.1224 9.02619 21.8616 9.16413C21.6007 9.30207 21.3953 9.52553 21.2797 9.79701L15.3655 23.9397L6.91844 5.88849C6.87896 5.80692 6.83159 5.72941 6.77701 5.65707L4.46276 2.5714H10.0941L16.1755 14.7855C16.2861 15.0055 16.4576 15.1891 16.6696 15.3145C16.8815 15.4398 17.1251 15.5017 17.3712 15.4926C17.6198 15.4829 17.8603 15.4011 18.0634 15.2573C18.2665 15.1136 18.4235 14.9139 18.5154 14.6827L23.3368 2.5714H29.6496L29.2639 2.94425C29.1447 3.06438 29.0504 3.20686 28.9864 3.36351C28.9225 3.52015 28.89 3.68789 28.891 3.85709V5.14279C28.891 5.48378 29.0265 5.8108 29.2676 6.05191C29.5087 6.29303 29.8357 6.42849 30.1767 6.42849C30.5177 6.42849 30.8447 6.29303 31.0858 6.05191C31.3269 5.8108 31.4624 5.48378 31.4624 5.14279V4.38423L33.6609 2.19854C33.8393 2.01774 33.9602 1.78815 34.0082 1.53874C34.0563 1.28933 34.0294 1.03127 33.9309 0.797134C33.8345 0.562342 33.6707 0.361353 33.4602 0.219498C33.2497 0.077643 33.0019 0.00126961 32.7481 2.57555e-06H22.4625C22.205 -0.000246698 21.9534 0.0768293 21.7402 0.221247C21.527 0.365664 21.3621 0.570768 21.2668 0.809992L17.1912 11.0056L12.0484 0.719993C11.9423 0.503606 11.7776 0.32137 11.5731 0.194067C11.3685 0.0667649 11.1322 -0.000479656 10.8912 2.57555e-06H1.89136C1.65394 0.000722187 1.42135 0.0671719 1.21937 0.191987C1.0174 0.316801 0.853935 0.495106 0.747094 0.707136C0.651316 0.912616 0.611574 1.13977 0.631895 1.36556C0.652216 1.59135 0.731879 1.80776 0.862807 1.99283L4.64276 7.07133L5.10561 8.06132V19.2855L0.862807 24.9425C0.706869 25.1409 0.612749 25.3808 0.592173 25.6322C0.571597 25.8837 0.625475 26.1357 0.747094 26.3568C0.862504 26.5568 1.02967 26.7221 1.23102 26.8352C1.43237 26.9483 1.66048 27.0051 1.89136 26.9996H10.8912C11.1287 26.9989 11.3613 26.9325 11.5632 26.8077C11.7652 26.6828 11.9287 26.5045 12.0355 26.2925C12.1438 26.079 12.1904 25.8395 12.1699 25.601C12.1495 25.3625 12.0629 25.1345 11.9198 24.9425L7.677 19.2855V13.6027L13.5783 26.2539C13.6816 26.4771 13.8467 26.666 14.0541 26.7981C14.2615 26.9303 14.5024 27.0002 14.7483 26.9996H16.034C16.2879 26.9984 16.5356 26.922 16.7461 26.7801C16.9566 26.6383 17.1204 26.4373 17.2169 26.2025L21.1768 16.7141V22.6154L18.9783 24.8011C18.7999 24.9819 18.679 25.2115 18.631 25.4609C18.5829 25.7103 18.6098 25.9684 18.7083 26.2025C18.8047 26.4373 18.9685 26.6383 19.179 26.7801C19.3895 26.922 19.6373 26.9984 19.8911 26.9996H32.7481C33.0019 26.9984 33.2497 26.922 33.4602 26.7801C33.6707 26.6383 33.8345 26.4373 33.9309 26.2025C34.0294 25.9684 34.0563 25.7103 34.0082 25.4609C33.9602 25.2115 33.8393 24.9819 33.6609 24.8011L31.4624 22.6154ZM4.46276 24.4282L6.3913 21.8568L8.31985 24.4282H4.46276Z" fill="#CC803C"/>
</svg>
