<svg width="32" height="31" viewBox="0 0 32 31" fill="none" xmlns="http://www.w3.org/2000/svg">
<path d="M21.8954 10.5264C24.1567 10.5264 26.3254 11.4247 27.9244 13.0237C29.5234 14.6226 30.4217 16.7913 30.4217 19.0527V29H24.7375V19.0527C24.7375 18.2989 24.4381 17.576 23.9051 17.043C23.3721 16.51 22.6492 16.2106 21.8954 16.2106C21.1417 16.2106 20.4188 16.51 19.8858 17.043C19.3528 17.576 19.0533 18.2989 19.0533 19.0527V29H13.3691V19.0527C13.3691 16.7913 14.2674 14.6226 15.8664 13.0237C17.4654 11.4247 19.6341 10.5264 21.8954 10.5264V10.5264Z" stroke="#CC803C" stroke-width="2.5" stroke-linecap="round" stroke-linejoin="round"/>
<path d="M7.68419 11.9475H2V29.0001H7.68419V11.9475Z" stroke="#CC803C" stroke-width="2.5" stroke-linecap="round" stroke-linejoin="round"/>
<path d="M4.8421 7.68419C6.41174 7.68419 7.68419 6.41174 7.68419 4.8421C7.68419 3.27245 6.41174 2 4.8421 2C3.27245 2 2 3.27245 2 4.8421C2 6.41174 3.27245 7.68419 4.8421 7.68419Z" stroke="#CC803C" stroke-width="2.5" stroke-linecap="round" stroke-linejoin="round"/>
</svg>
